<svg fill="none" xmlns="http://www.w3.org/2000/svg" viewBox="0 0 217 90">
  <path d="M1 88.57c7.042-4.159 11.632-14.525 19.5-15.026 7.687-.488 11.836 5.584 19.5 4.731 8.065-.897 11.43-11.765 19.5-12.616 7.678-.81 11.885 5.63 19.5 4.206 8.649-1.619 10.742-15.415 19.5-15.245 9.033.175 10.469 9.3 19.499 8.936 10.209-.41 11.212-18.341 19.5-18.399 8.287-.057 10.655 11.41 19.5 11.04 12.853-.537 9.993-37.801 19.499-35.221 9.507 2.58 18.21 25.67 25.47 24.707 7.26-.964 9.24-12.353 13.53-44.683" stroke="url(#EYd4EC_WObX0a)" stroke-width="2.5" stroke-linejoin="round"/>
  <defs>
    <linearGradient id="EYd4EC_WObX0a" x1="215.498" y1="1" x2="16.13" y2="115.262" gradientUnits="userSpaceOnUse">
      <stop stop-color="#1D76CE"/>
      <stop offset="1" stop-color="#1D76CE" stop-opacity="0"/>
    </linearGradient>
  </defs>
</svg>
