<svg fill="none" xmlns="http://www.w3.org/2000/svg" viewBox="0 0 461 174">
  <path d="M83.818 146.579c-16.47 1.617-25.389-9.901-41.909-8.974C25 138.553 15.135 158.217 0 166.106V174h461V0c-9.364 82.747-24.114 88.745-36.171 83.76-12.057-4.986-27.216-40.974-47.647-45.869-20.431-4.894-14.285 65.79-41.909 66.808-19.009.701-24.098-21.049-41.909-20.94-17.812.11-19.968 34.121-41.909 34.9-19.408.689-22.493-16.619-41.91-16.951-18.82-.322-23.319 25.847-41.909 28.917-16.364 2.702-25.405-9.514-41.909-7.977-17.342 1.614-24.575 22.229-41.909 23.931z" fill="url(#dNrh3zlWWPYwa)"/>
  <defs>
    <linearGradient id="dNrh3zlWWPYwa" x1="230.5" y1="0" x2="230.5" y2="174" gradientUnits="userSpaceOnUse">
      <stop stop-color="#CADCED"/>
      <stop offset="1" stop-color="#fff"/>
    </linearGradient>
  </defs>
</svg>
