<svg fill="none" xmlns="http://www.w3.org/2000/svg" viewBox="0 0 215 92">
  <path d="M39 77.085c-7.664.85-11.813-5.207-19.5-4.72-7.868.5-12.458 10.841-19.5 14.99v4.151h214.498V0c-4.357 43.516-11.22 46.67-16.83 44.049-5.61-2.622-12.663-21.548-22.17-24.122-9.506-2.574-6.646 34.599-19.499 35.134-8.845.368-11.213-11.07-19.5-11.012-8.288.057-9.291 17.944-19.5 18.353-9.03.363-10.466-8.74-19.5-8.914-8.757-.17-10.85 13.593-19.5 15.207-7.614 1.421-11.82-5.003-19.5-4.195-8.069.849-11.434 11.69-19.5 12.585z" fill="url(#hem_vLhkmoJ1a)"/>
  <defs>
    <linearGradient id="hem_vLhkmoJ1a" x1="107.249" y1="0" x2="107.249" y2="91.506" gradientUnits="userSpaceOnUse">
      <stop stop-color="#CADCED"/>
      <stop offset="1" stop-color="#fff"/>
    </linearGradient>
  </defs>
</svg>
