<svg fill="none" xmlns="http://www.w3.org/2000/svg" viewBox="0 0 215 53">
  <path d="M39 38.585c-7.664.85-11.813-5.207-19.5-4.72-7.868.5-12.458 10.841-19.5 14.99v4.151h214.498V0c-4.357 43.516-8.89 8.17-14.5 5.549-5.61-2.622-1.494 20.927-11 18.353-9.506-2.574-21.647 14.148-34.5 14.683-8.845.369-9.712-33.094-17.999-33.036-8.288.057-9.291 17.944-19.5 18.353-9.03.363-10.466-8.74-19.5-8.914-8.757-.17-10.85 13.593-19.5 15.207-7.614 1.421-11.82-5.003-19.5-4.195-8.069.849-11.434 11.69-19.5 12.585z" fill="url(#dA-5GKVHVKW9a)"/>
  <defs>
    <linearGradient id="dA-5GKVHVKW9a" x1="107.249" y1="-38.5" x2="107.249" y2="53.006" gradientUnits="userSpaceOnUse">
      <stop stop-color="#CADCED"/>
      <stop offset="1" stop-color="#fff"/>
    </linearGradient>
  </defs>
</svg>
