<svg fill="none" xmlns="http://www.w3.org/2000/svg" viewBox="0 0 464 170">
  <path d="M1 168c15.135-7.931 25-27.701 41.91-28.655 16.52-.932 25.437 10.648 41.908 9.022 17.334-1.711 24.567-22.437 41.909-24.06 16.504-1.544 25.545 10.737 41.909 8.02 18.59-3.086 23.089-29.396 41.909-29.072 19.417.334 22.502 17.735 41.91 17.042 21.941-.782 24.097-34.977 41.909-35.087 17.811-.11 22.9 21.757 41.909 21.052 27.624-1.023 21.478-72.088 41.909-67.167 20.431 4.92 39.136 48.955 54.74 47.118C448.525 84.375 452.78 62.653 462 1" stroke="url(#nOWL6b_xmwbea)" stroke-width="2.5" stroke-linejoin="round"/>
  <defs>
    <linearGradient id="nOWL6b_xmwbea" x1="462" y1="1" x2="60.341" y2="260.432" gradientUnits="userSpaceOnUse">
      <stop stop-color="#1D76CE"/>
      <stop offset="1" stop-color="#1D76CE" stop-opacity="0"/>
    </linearGradient>
  </defs>
</svg>
